<?xml version="1.0" standalone="no"?>
<!DOCTYPE svg PUBLIC "-//W3C//DTD SVG 20010904//EN"
 "http://www.w3.org/TR/2001/REC-SVG-20010904/DTD/svg10.dtd">
<svg version="1.0" xmlns="http://www.w3.org/2000/svg"
 width="2477.000000pt" height="2477.000000pt" viewBox="0 0 2477.000000 2477.000000"
 preserveAspectRatio="xMidYMid meet">
<metadata>
Created by potrace 1.11, written by Peter Selinger 2001-2013
</metadata>
<g transform="translate(0.000000,2477.000000) scale(0.100000,-0.100000)"
fill="#000000" stroke="none">
<path d="M7847 24749 c-9 -6 -17 -7 -17 -4 0 6 -6 1 -52 -40 -94 -82 -94 -243
-2 -330 20 -19 39 -33 42 -31 2 3 11 -1 19 -9 8 -8 26 -15 39 -15 21 0 30 -11
59 -75 19 -41 35 -77 35 -79 0 -2 23 -52 50 -110 28 -58 50 -108 50 -111 0 -2
18 -44 41 -91 22 -48 70 -153 106 -233 93 -209 102 -230 130 -291 14 -30 56
-122 93 -205 37 -82 80 -177 95 -210 29 -63 66 -146 92 -205 9 -19 28 -62 43
-95 16 -33 38 -82 50 -110 12 -27 33 -75 47 -105 14 -30 45 -100 70 -155 25
-55 56 -125 70 -155 14 -30 54 -120 90 -200 74 -164 93 -208 136 -300 17 -36
31 -67 32 -70 4 -12 25 -60 55 -125 18 -38 52 -115 77 -170 25 -55 56 -125 70
-155 14 -30 33 -73 43 -95 10 -22 29 -65 43 -95 13 -30 34 -75 44 -100 11 -25
96 -211 188 -415 92 -203 184 -408 205 -455 21 -47 49 -111 64 -142 25 -55 44
-97 96 -213 21 -48 61 -136 100 -220 24 -53 233 -517 316 -703 36 -80 78 -173
94 -206 15 -34 37 -82 48 -107 40 -88 209 -464 232 -514 13 -27 33 -72 45
-100 13 -27 41 -90 63 -140 22 -49 51 -115 65 -145 14 -30 46 -102 72 -160 26
-58 58 -130 72 -160 14 -30 77 -170 140 -310 63 -140 125 -277 138 -305 37
-81 73 -161 142 -315 36 -80 76 -170 90 -200 85 -186 113 -252 113 -263 0 -7
-9 -22 -19 -34 -28 -30 -77 -122 -92 -171 l-12 -43 -81 5 c-160 11 -282 18
-343 19 -35 1 -63 4 -63 7 0 3 -35 6 -78 6 -71 2 -115 4 -357 20 -89 5 -156 9
-310 18 -86 6 -197 13 -340 22 -49 3 -119 7 -155 9 -36 1 -65 4 -65 5 0 0 -36
3 -80 5 -112 6 -362 20 -515 30 -36 3 -108 7 -160 10 -52 3 -124 7 -160 10
-157 10 -286 18 -302 17 -10 0 -18 4 -18 10 0 6 -7 5 -17 -3 -9 -8 -18 -13
-19 -11 -2 2 -17 7 -34 12 -21 6 -28 5 -24 -2 5 -7 2 -8 -5 -3 -7 4 -43 9 -79
11 -121 7 -256 15 -312 19 -30 2 -90 5 -132 7 -43 2 -78 6 -78 10 0 4 -13 3
-29 -2 -16 -4 -32 -6 -35 -2 -4 3 -32 7 -64 9 -31 1 -95 5 -142 8 -207 12
-308 18 -352 19 -27 0 -48 3 -48 6 0 3 -37 6 -83 7 -76 1 -151 5 -367 19 -47
3 -101 6 -120 6 -19 1 -41 5 -47 11 -8 5 -13 6 -13 0 0 -5 -15 -8 -32 -6 -31
3 -88 7 -253 18 -129 8 -290 17 -342 18 -29 1 -53 4 -53 7 0 3 -33 6 -73 7
-70 1 -149 5 -367 18 -153 9 -205 13 -205 15 0 1 -43 3 -95 5 -89 3 -152 7
-345 21 -44 3 -116 7 -160 10 -44 2 -111 6 -150 9 -38 2 -110 6 -160 9 -49 3
-133 8 -185 12 -52 3 -117 7 -145 7 -27 1 -53 6 -57 11 -5 7 -8 6 -8 -2 0 -7
-4 -11 -10 -7 -5 3 -51 8 -102 10 -51 3 -124 7 -163 10 -38 3 -113 8 -165 11
-52 3 -122 7 -155 10 -33 2 -103 6 -155 9 -52 3 -131 7 -175 10 -114 8 -323 8
-370 0 -98 -16 -111 -19 -165 -35 -25 -8 -48 -13 -52 -12 -5 1 -8 -3 -8 -10 0
-6 -3 -9 -6 -6 -3 3 -37 -9 -75 -28 -38 -19 -74 -34 -78 -34 -5 0 -11 -4 -13
-8 -1 -5 -29 -25 -61 -46 -32 -22 -90 -71 -129 -110 -169 -169 -267 -367 -306
-616 -8 -55 -7 -332 2 -415 6 -60 17 -232 20 -312 0 -24 3 -43 6 -43 3 0 5
-26 6 -58 0 -51 5 -132 19 -317 2 -33 7 -98 10 -145 4 -47 8 -114 11 -150 2
-36 7 -96 9 -135 3 -38 7 -97 9 -130 2 -33 5 -87 7 -120 1 -33 6 -65 11 -72 5
-7 5 -14 -2 -18 -6 -3 -8 -10 -5 -15 6 -9 11 -75 20 -225 2 -44 4 -80 5 -80 2
0 13 -179 13 -212 0 -18 2 -31 6 -29 3 2 6 -28 7 -68 0 -68 7 -191 21 -356 3
-41 6 -88 7 -105 1 -16 5 -35 9 -42 4 -6 3 -14 -3 -18 -6 -4 -8 -10 -5 -14 2
-5 7 -46 10 -92 3 -46 7 -111 10 -144 5 -61 14 -199 20 -290 8 -113 17 -252
20 -285 4 -54 16 -228 20 -300 2 -36 6 -96 10 -135 5 -67 10 -139 20 -290 2
-38 7 -106 10 -150 3 -44 8 -105 10 -135 2 -30 6 -93 9 -140 6 -79 12 -167 21
-300 2 -30 6 -91 9 -135 3 -44 8 -114 11 -155 7 -117 15 -229 21 -300 12 -166
15 -209 19 -265 1 -33 6 -105 10 -160 4 -55 9 -125 10 -155 2 -30 6 -91 9
-135 4 -44 8 -111 11 -150 3 -38 7 -99 10 -135 3 -36 7 -101 10 -145 10 -149
15 -220 20 -276 2 -31 7 -103 10 -160 4 -57 8 -126 11 -154 5 -75 14 -192 18
-270 3 -38 8 -115 12 -170 3 -55 7 -121 8 -147 0 -27 3 -48 6 -48 3 0 5 -26 6
-58 1 -54 8 -178 19 -307 8 -110 16 -229 21 -300 2 -38 6 -97 9 -130 5 -62 13
-183 20 -295 2 -36 6 -96 9 -135 3 -38 8 -104 11 -145 2 -41 7 -113 11 -160 3
-47 7 -109 8 -137 0 -29 3 -53 6 -53 3 0 5 -24 6 -53 0 -47 6 -142 19 -322 4
-66 13 -203 20 -305 2 -36 6 -94 9 -130 3 -36 8 -110 11 -165 4 -55 11 -105
17 -112 5 -7 5 -13 0 -17 -5 -3 -8 -18 -6 -33 4 -29 8 -95 19 -263 4 -52 8
-122 11 -155 2 -33 6 -91 8 -130 3 -38 7 -99 10 -135 3 -36 8 -103 11 -150 3
-47 8 -117 11 -156 3 -39 7 -99 9 -135 2 -35 7 -100 10 -144 3 -44 7 -109 10
-145 14 -227 18 -266 27 -277 5 -6 5 -13 1 -16 -9 -6 -8 -22 2 -142 3 -38 8
-101 10 -140 5 -84 15 -217 21 -300 2 -33 5 -93 7 -132 1 -40 4 -73 7 -73 3 0
5 -26 6 -58 1 -49 5 -128 19 -312 15 -197 100 -409 229 -568 15 -18 161 -164
178 -178 134 -107 375 -221 503 -240 17 -2 55 -8 85 -13 72 -12 150 -13 1530
-16 646 -2 2133 -6 3305 -10 1172 -3 2740 -8 3485 -10 745 -2 2316 -7 3490
-10 3216 -10 5640 -11 5690 -3 275 46 559 246 702 493 63 109 110 237 123 335
2 19 6 51 9 70 3 19 7 73 11 120 7 122 15 225 20 300 3 36 7 101 10 145 5 76
8 123 20 287 3 39 8 113 11 162 3 50 6 109 8 131 3 22 7 81 10 130 9 121 14
205 21 295 3 41 7 109 10 150 9 135 15 224 21 300 4 41 8 104 9 140 2 36 4 65
5 65 1 0 3 29 5 65 3 66 12 196 20 305 3 33 7 94 10 135 5 86 13 195 21 295 3
39 7 102 9 140 2 39 7 104 10 145 3 41 7 107 10 145 3 39 7 102 10 140 19 255
25 337 30 435 2 41 6 104 9 140 6 63 12 148 21 299 2 40 6 76 9 78 3 3 1 14
-5 24 -5 11 -6 19 -1 19 5 0 10 28 12 63 2 77 6 128 15 237 4 47 9 114 11 150
2 36 6 94 8 130 3 36 7 97 10 135 3 39 8 120 12 180 5 61 8 136 9 167 0 32 2
58 5 58 3 0 6 19 6 43 2 62 13 222 19 297 3 36 8 103 10 150 2 47 5 85 6 85 0
0 2 20 4 45 3 60 15 242 21 310 6 86 14 198 19 280 3 41 7 107 10 145 3 39 7
102 10 140 9 141 15 207 20 216 4 5 1 9 -5 9 -6 0 -8 5 -5 10 7 12 11 54 21
200 12 190 13 216 19 295 4 44 8 103 10 130 8 125 16 236 21 305 3 41 7 100 9
130 5 83 16 238 20 300 10 133 17 239 21 295 2 33 6 87 9 120 2 33 7 101 10
150 4 50 8 117 10 150 3 33 7 98 10 145 4 47 8 105 10 130 1 25 6 92 9 149 7
102 9 126 21 286 4 44 8 114 10 155 2 41 7 109 10 150 10 136 16 214 20 285
12 188 15 225 20 290 3 39 8 102 10 140 3 39 7 104 10 145 3 41 7 107 10 145
2 39 7 104 10 145 3 41 8 109 10 150 3 41 8 104 11 140 3 36 7 101 9 145 3 44
6 103 9 130 2 28 7 95 11 150 12 182 15 217 20 225 3 5 1 11 -5 15 -6 4 -7 13
-1 23 10 18 11 282 2 282 -4 0 -6 12 -6 28 -1 44 -14 111 -25 132 -6 11 -9 20
-6 20 10 0 -43 138 -84 220 -23 47 -63 113 -88 148 -63 89 -203 229 -245 245
-9 3 -17 11 -17 17 0 6 -4 8 -10 5 -5 -3 -10 -2 -10 3 0 5 -42 29 -92 54 -127
63 -224 90 -360 102 -77 7 -272 18 -335 20 -29 0 -53 3 -53 6 0 3 -35 6 -78 6
-42 1 -120 4 -172 8 -164 11 -283 18 -345 21 -33 2 -60 4 -60 5 0 0 -43 3 -95
5 -52 2 -129 6 -170 9 -144 10 -266 17 -340 22 -119 7 -209 12 -300 18 -47 4
-128 9 -180 11 -52 3 -124 8 -160 10 -36 3 -108 7 -160 10 -52 3 -124 7 -160
10 -66 4 -251 15 -350 20 -30 2 -55 4 -55 5 0 1 -36 3 -80 5 -73 3 -138 7
-355 21 -74 5 -167 10 -305 18 -38 3 -113 7 -165 11 -100 6 -247 15 -340 20
-30 1 -55 4 -55 4 0 1 -45 4 -100 7 -180 9 -194 10 -201 17 -4 3 -14 2 -24 -3
-10 -5 -20 -7 -22 -4 -3 3 -45 7 -94 10 -135 8 -199 12 -199 14 0 0 -47 3
-105 5 -101 5 -131 6 -340 20 -151 11 -298 20 -480 30 -52 3 -135 8 -185 11
-49 3 -106 6 -125 7 -19 1 -40 6 -47 10 -6 4 -14 3 -18 -3 -4 -6 -10 -8 -14
-5 -8 4 -82 10 -266 20 -38 2 -113 7 -165 11 -52 3 -107 6 -122 5 -15 -1 -30
3 -33 9 -4 6 -12 7 -24 1 -14 -8 -56 -8 -56 -1 0 1 -36 3 -80 5 -70 3 -170 9
-340 20 -27 2 -77 4 -110 6 -33 1 -66 6 -72 12 -7 5 -13 5 -13 1 0 -5 -17 -8
-37 -6 -103 7 -463 30 -588 37 -27 2 -50 4 -50 4 0 1 -49 4 -110 7 -60 3 -129
6 -152 7 -23 1 -45 5 -49 9 -3 4 -14 3 -24 -2 -10 -5 -20 -7 -23 -3 -4 3 -35
7 -69 8 -171 8 -177 8 -171 19 5 8 3 8 -8 1 -8 -6 -25 -10 -39 -9 -202 16
-362 26 -392 25 -23 -1 -29 4 -37 36 -6 21 -11 45 -11 53 0 8 -17 50 -38 92
l-38 77 71 93 c39 51 287 377 550 723 264 347 483 635 487 640 5 6 65 84 134
175 68 91 130 172 137 180 7 8 53 69 102 135 97 128 215 283 249 326 12 14 28
36 36 48 8 13 25 35 37 49 12 15 55 72 97 127 41 55 79 105 83 110 4 6 44 57
88 115 99 130 87 115 140 182 25 31 45 61 45 67 0 6 4 11 8 11 4 0 27 26 49
58 23 31 48 66 57 77 27 34 157 203 271 355 60 80 112 147 115 150 3 3 41 52
84 110 98 130 292 385 323 425 13 17 27 35 31 40 4 6 31 40 60 77 28 37 52 70
52 73 0 3 11 17 25 31 14 14 25 28 25 32 0 4 10 18 23 32 12 14 60 77 107 140
47 63 90 120 96 125 6 6 21 26 34 45 13 19 35 49 49 66 14 18 35 44 46 58 11
15 32 42 48 60 15 19 27 38 27 44 0 6 4 12 8 14 4 2 37 41 72 88 36 47 67 87
70 90 3 3 39 50 80 105 41 55 77 102 81 105 3 3 10 12 15 21 5 9 21 32 37 50
15 19 54 70 87 114 34 44 66 87 73 95 7 9 32 42 57 75 24 33 48 65 52 70 5 6
44 57 88 115 44 58 83 110 88 115 4 6 28 37 52 70 25 33 47 62 50 65 3 3 28
34 55 70 125 168 200 265 205 270 5 5 229 300 265 349 20 28 58 77 85 111 8
10 24 31 35 46 11 15 44 58 73 96 28 38 52 72 52 77 0 5 4 11 9 13 5 2 51 57
101 123 l91 120 67 1 c99 3 161 42 202 129 36 74 21 180 -34 239 -27 29 -116
84 -116 72 0 -2 -16 0 -34 4 -19 4 -38 5 -41 2 -3 -3 -16 -7 -28 -9 -58 -9
-119 -57 -151 -120 -19 -39 -27 -108 -16 -139 6 -15 4 -27 -8 -40 -9 -11 -29
-35 -44 -56 -15 -20 -33 -42 -40 -50 -8 -7 -33 -38 -56 -68 -43 -55 -88 -111
-107 -133 -6 -7 -31 -39 -55 -72 -25 -33 -48 -62 -51 -65 -6 -5 -59 -71 -134
-166 -16 -21 -52 -66 -80 -99 -27 -34 -61 -77 -75 -95 -23 -31 -32 -41 -81
-98 -10 -12 -19 -26 -19 -30 0 -4 -8 -14 -17 -23 -10 -8 -29 -30 -43 -48 -14
-19 -32 -42 -40 -52 -8 -9 -33 -40 -55 -68 -22 -28 -43 -51 -47 -51 -5 0 -8
-4 -8 -10 0 -9 -15 -29 -45 -64 -6 -6 -26 -31 -45 -56 -19 -25 -39 -50 -45
-56 -5 -6 -21 -26 -35 -44 -46 -61 -88 -113 -122 -151 -10 -10 -18 -23 -18
-28 0 -5 -4 -11 -8 -13 -5 -1 -26 -26 -48 -53 -21 -28 -45 -57 -52 -65 -7 -8
-72 -90 -145 -182 -73 -91 -144 -181 -159 -200 -44 -54 -54 -67 -378 -473
-172 -214 -326 -408 -344 -430 -18 -22 -83 -103 -145 -180 -61 -77 -117 -147
-124 -155 -6 -8 -28 -35 -47 -60 -19 -25 -42 -54 -52 -65 -9 -11 -54 -67 -100
-125 -45 -58 -87 -110 -93 -116 -5 -6 -37 -46 -69 -88 -33 -42 -63 -76 -68
-76 -4 0 -8 -4 -8 -9 0 -8 -407 -524 -476 -603 -13 -15 -24 -32 -24 -37 0 -5
-3 -11 -7 -13 -5 -1 -28 -28 -53 -58 -25 -30 -49 -60 -55 -66 -5 -6 -17 -22
-25 -34 -8 -12 -20 -28 -26 -34 -6 -6 -77 -94 -158 -196 -81 -102 -160 -201
-176 -220 -15 -19 -92 -116 -171 -215 -79 -99 -148 -185 -154 -192 -5 -7 -14
-18 -20 -25 -9 -12 -71 -90 -102 -128 -7 -8 -80 -100 -164 -205 -83 -104 -166
-208 -184 -230 -18 -22 -56 -69 -84 -105 -61 -77 -43 -54 -212 -265 -74 -94
-216 -271 -315 -395 -206 -259 -206 -259 -219 -274 -6 -6 -42 -52 -82 -101
-67 -85 -73 -91 -108 -90 l-38 0 -59 125 c-33 69 -90 186 -126 260 -62 129
-118 247 -222 465 -26 55 -82 172 -125 260 -43 88 -99 205 -125 260 -59 124
-146 304 -240 500 -40 83 -89 186 -110 230 -21 44 -72 152 -115 240 -43 88
-97 201 -120 250 -40 84 -89 186 -243 505 -33 69 -85 177 -115 240 -30 63 -87
183 -127 265 -40 83 -92 191 -115 240 -23 50 -75 158 -115 240 -40 83 -96 200
-125 260 -58 121 -137 285 -240 500 -102 213 -183 380 -230 480 -24 50 -78
162 -120 250 -43 88 -99 205 -125 260 -26 55 -78 163 -115 240 -37 77 -89 185
-115 240 -26 55 -80 168 -120 250 -40 83 -94 195 -120 250 -48 101 -125 262
-240 500 -34 72 -79 166 -100 210 -21 44 -77 161 -125 260 -48 99 -114 236
-147 305 -33 69 -92 192 -132 275 l-73 150 24 51 c30 65 32 136 6 195 -22 48
-68 99 -89 99 -8 0 -14 5 -14 11 0 5 -4 7 -10 4 -5 -3 -10 -2 -10 3 0 13 -141
13 -163 1z m-3807 -9902 c61 7 142 8 152 1 7 -4 18 -2 25 4 7 6 13 6 13 1 0
-5 24 -9 53 -9 28 0 95 -4 147 -7 52 -4 138 -10 190 -13 52 -2 129 -7 170 -10
41 -2 109 -6 150 -9 41 -2 111 -7 155 -9 44 -3 80 -6 80 -6 0 -1 38 -3 85 -5
156 -6 272 -15 281 -21 5 -3 9 1 9 8 0 8 3 9 8 3 4 -5 27 -10 52 -11 25 -1 88
-4 140 -8 52 -3 142 -9 200 -12 103 -5 195 -12 195 -14 0 -1 41 -3 90 -5 50
-2 126 -7 170 -10 44 -3 130 -8 190 -11 215 -11 240 -12 240 -14 0 -2 48 -5
205 -14 47 -2 85 -5 85 -6 0 0 49 -3 110 -6 60 -2 139 -7 175 -10 36 -3 97 -7
135 -9 39 -2 108 -6 155 -9 47 -3 130 -8 185 -11 55 -3 132 -8 170 -11 68 -4
176 -10 322 -18 40 -3 77 -7 83 -11 5 -3 10 -1 10 5 0 6 5 8 12 4 12 -8 35
-10 213 -19 61 -3 135 -8 165 -10 30 -2 98 -6 150 -9 52 -3 95 -6 95 -6 0 -1
38 -3 85 -5 47 -3 121 -7 165 -10 91 -7 157 -11 300 -19 55 -3 134 -8 175 -11
41 -3 120 -7 175 -10 55 -3 127 -7 160 -10 57 -4 153 -10 315 -20 41 -3 120
-7 175 -10 55 -2 100 -5 100 -5 0 -2 80 -7 215 -14 63 -3 142 -8 175 -11 33
-3 103 -7 155 -10 139 -8 213 -13 325 -20 55 -3 136 -8 180 -11 192 -10 262
-15 290 -18 17 -1 36 2 44 8 11 8 13 8 7 -1 -5 -10 8 -13 56 -14 35 -1 81 -3
103 -5 22 -2 81 -6 130 -8 99 -6 246 -16 285 -20 14 -2 31 1 38 7 7 6 12 6 12
0 0 -5 12 -10 28 -10 15 0 70 -4 122 -7 52 -4 133 -9 180 -11 149 -9 225 -14
225 -15 0 -1 36 -3 80 -5 112 -5 260 -14 260 -15 0 -1 41 -3 90 -6 176 -8 240
-13 265 -18 14 -3 27 0 32 7 4 6 8 7 8 2 0 -6 30 -12 68 -13 37 -2 94 -5 127
-8 33 -2 110 -6 170 -10 61 -3 137 -7 170 -10 33 -2 98 -6 145 -9 47 -3 114
-6 150 -9 202 -13 273 -18 345 -21 128 -8 235 -14 310 -20 39 -3 111 -8 160
-10 50 -3 126 -7 170 -10 130 -9 210 -14 525 -32 63 -4 136 -7 162 -7 27 -1
48 -3 48 -6 0 -3 24 -5 53 -6 59 -1 282 -12 282 -14 0 -2 109 -9 230 -14 55
-3 132 -8 170 -11 39 -3 108 -7 155 -9 47 -3 85 -5 85 -6 0 -1 87 -7 245 -15
52 -3 127 -7 165 -10 39 -2 115 -7 170 -9 55 -3 123 -8 150 -11 28 -3 95 -7
150 -10 55 -3 134 -8 175 -10 41 -3 116 -7 165 -10 50 -2 124 -7 165 -10 41
-3 116 -7 165 -10 50 -2 119 -7 155 -9 202 -15 440 -29 532 -30 38 -1 68 -3
68 -6 0 -3 26 -6 58 -7 90 -2 260 -11 347 -18 44 -4 107 -8 140 -10 33 -2 60
-4 60 -5 0 0 43 -3 95 -5 159 -7 304 -19 349 -29 175 -40 292 -104 424 -231
29 -28 66 -69 82 -90 17 -22 33 -42 36 -45 4 -3 29 -48 57 -100 47 -90 85
-184 96 -240 3 -14 8 -36 11 -50 13 -57 25 -275 15 -275 -2 0 -3 -11 -14 -205
-4 -63 -8 -135 -11 -160 -7 -76 -17 -212 -20 -270 -4 -68 -13 -207 -20 -280
-2 -30 -7 -100 -10 -155 -7 -127 -13 -201 -20 -295 -4 -41 -8 -104 -10 -140
-2 -36 -6 -99 -9 -140 -13 -166 -21 -288 -21 -337 0 -29 -2 -53 -5 -53 -3 0
-6 -37 -8 -83 -2 -76 -9 -162 -12 -162 -2 0 -12 -185 -13 -237 -1 -21 -4 -38
-7 -38 -3 0 -5 -28 -6 -63 -1 -93 -30 -532 -34 -532 -1 0 -3 -29 -5 -65 -2
-36 -6 -105 -9 -155 -13 -174 -19 -281 -20 -337 0 -32 -3 -58 -6 -58 -3 0 -6
-28 -6 -62 -1 -34 -5 -96 -9 -138 -4 -41 -9 -106 -10 -145 -4 -85 -11 -141
-20 -155 -3 -5 -3 -10 2 -10 4 0 8 -13 8 -30 1 -16 -2 -30 -5 -30 -3 0 -6 -24
-6 -52 0 -29 -3 -91 -7 -138 -4 -47 -10 -137 -13 -200 -4 -63 -11 -121 -16
-127 -7 -9 -7 -13 1 -13 7 0 9 -5 6 -10 -4 -6 -8 -45 -11 -88 -2 -42 -7 -113
-10 -157 -3 -44 -7 -107 -9 -140 -2 -33 -6 -100 -9 -150 -3 -49 -6 -90 -7 -90
0 0 -2 -20 -4 -45 -6 -83 -15 -214 -20 -285 -2 -38 -7 -108 -10 -155 -3 -47
-8 -116 -11 -155 -2 -38 -6 -101 -9 -140 -3 -38 -8 -115 -11 -170 -3 -55 -10
-108 -15 -117 -7 -12 -6 -18 1 -18 6 0 9 -4 6 -8 -3 -5 -8 -56 -11 -113 -3
-57 -8 -133 -11 -169 -10 -121 -17 -245 -18 -303 -1 -31 -3 -57 -6 -57 -3 0
-6 -35 -8 -78 -2 -42 -5 -97 -8 -122 -2 -25 -6 -94 -9 -155 -6 -118 -12 -200
-15 -200 -1 0 -3 -29 -5 -65 -4 -74 -12 -204 -20 -300 -8 -104 -15 -199 -20
-285 -7 -127 -13 -210 -15 -210 -1 0 -4 -31 -5 -70 -8 -136 -14 -241 -19 -295
-9 -93 -16 -200 -22 -320 -3 -72 -10 -117 -17 -122 -7 -5 -8 -8 -1 -8 6 0 9
-14 6 -32 -2 -18 -5 -60 -7 -93 -1 -33 -6 -96 -9 -140 -3 -44 -8 -111 -11
-150 -3 -38 -7 -104 -10 -145 -3 -41 -7 -111 -10 -155 -3 -44 -7 -109 -10
-145 -3 -36 -8 -96 -10 -135 -12 -193 -14 -230 -15 -230 -2 0 -4 -32 -14 -195
-10 -174 -20 -275 -26 -275 -1 0 -3 -7 -5 -15 -21 -104 -82 -235 -160 -339
-17 -23 -150 -155 -184 -183 -75 -60 -228 -127 -356 -156 -32 -7 -3416 -6
-6090 3 -891 3 -2452 7 -3470 10 -4331 11 -5593 16 -5650 20 -149 11 -328 72
-469 160 -81 50 -286 243 -286 270 0 2 -13 24 -30 48 -16 25 -30 50 -30 56 0
6 -4 11 -10 11 -5 0 -10 8 -10 18 0 10 -4 22 -9 27 -11 11 -40 88 -47 125 -2
14 -7 32 -10 40 -8 21 -15 84 -17 152 -1 32 -4 58 -7 58 -3 0 -5 17 -6 37 -1
93 -8 209 -12 216 -4 8 -9 88 -17 257 -1 36 -4 65 -5 65 -1 0 -3 34 -6 75 -6
92 -12 175 -14 175 -1 0 -12 216 -14 277 0 21 -3 38 -6 38 -3 0 -6 26 -6 58
-2 62 -12 257 -14 257 -2 0 -10 113 -13 182 -2 35 -6 66 -10 69 -4 4 -2 13 4
21 6 7 8 13 3 13 -5 0 -9 17 -10 37 -1 21 -4 79 -7 128 -3 50 -9 135 -12 190
-7 106 -11 169 -19 275 -5 62 -9 114 -22 300 -3 47 -7 117 -9 155 -2 39 -4 70
-5 70 -3 0 -8 75 -14 185 -3 58 -8 139 -11 180 -3 41 -8 102 -10 135 -2 33 -4
60 -5 60 0 0 -3 38 -6 85 -7 121 -12 191 -20 305 -4 55 -8 117 -8 138 0 20 -3
37 -6 37 -3 0 -6 26 -6 58 -1 31 -5 100 -8 152 -7 95 -8 119 -5 143 0 6 -2 29
-6 50 -3 21 -8 75 -10 120 -2 45 -4 82 -5 82 -1 0 -3 36 -6 80 -2 44 -6 105
-9 135 -5 50 -11 140 -20 295 -2 33 -6 89 -10 125 -3 36 -7 103 -10 150 -2 47
-4 85 -5 85 0 0 -3 34 -5 75 -3 41 -8 107 -11 145 -5 69 -10 132 -18 270 -3
39 -8 108 -11 155 -3 47 -7 109 -9 138 -2 29 -6 56 -10 59 -3 3 -1 14 5 24 5
11 6 19 2 19 -5 0 -9 12 -9 28 -3 47 -14 234 -19 317 -3 44 -8 112 -10 150 -2
39 -4 70 -5 70 -2 0 -7 60 -14 180 -3 50 -8 100 -10 112 -3 13 0 25 5 29 6 3
6 11 1 17 -8 12 -10 31 -17 162 -2 33 -6 87 -9 120 -4 33 -8 98 -11 145 -2 47
-7 121 -10 165 -7 100 -14 208 -21 305 -2 41 -6 98 -8 125 -13 161 -20 266
-20 308 -1 26 -3 47 -6 47 -3 0 -5 21 -6 48 -1 45 -5 128 -19 332 -4 52 -8
123 -9 156 -2 34 -6 67 -10 73 -4 6 -2 11 5 11 8 0 8 4 1 13 -6 6 -13 59 -15
117 -3 58 -6 105 -6 105 -2 0 -11 141 -16 245 -2 36 -6 81 -9 100 -3 19 -7 88
-8 152 -2 65 -5 118 -8 118 -3 0 -6 37 -8 83 -4 107 -10 189 -16 194 -3 3 -1
16 4 29 5 13 6 24 2 24 -8 0 -14 69 -15 168 -1 34 -4 62 -7 62 -3 0 -7 42 -9
93 -6 163 -7 176 -13 183 -4 3 -3 17 2 30 5 13 6 24 2 24 -4 0 -9 37 -11 83
-5 99 -8 152 -10 152 -2 0 -10 124 -16 250 -2 44 -4 80 -5 80 -6 0 -21 229
-25 381 -7 305 117 575 356 769 47 39 186 118 209 120 3 0 10 3 15 7 18 11
115 37 115 30 0 -3 5 -1 12 6 7 7 25 12 40 12 15 0 28 5 28 11 0 7 4 8 13 2 6
-5 23 -8 37 -6z"/>
<path d="M6850 13165 c-5 -6 -8 -14 -5 -17 3 -3 6 -340 8 -749 l2 -744 30 0
c17 0 36 -4 43 -8 6 -5 12 -4 12 1 0 10 30 9 48 -2 6 -4 12 -3 12 3 0 7 8 7
25 1 14 -5 25 -6 25 -1 0 12 43 8 52 -4 5 -6 8 -6 8 1 0 12 38 13 56 1 6 -3
14 -3 18 0 12 12 56 11 56 -1 0 -7 3 -8 8 -1 4 6 16 11 27 11 11 0 23 -5 27
-11 5 -7 8 -7 8 0 0 6 20 11 45 11 25 -1 45 -4 45 -9 0 -4 6 -5 12 0 18 11 52
10 60 -2 5 -6 8 -6 8 1 0 7 12 10 28 7 15 -2 32 -4 37 -4 6 0 22 2 38 4 15 2
27 0 27 -5 0 -5 6 -6 12 -2 18 11 48 12 48 2 0 -5 4 -6 10 -3 19 11 50 14 50
4 0 -6 6 -7 12 -3 18 11 48 12 48 2 0 -5 6 -6 12 -2 18 11 48 12 48 2 0 -5 6
-6 12 -2 18 11 48 12 48 2 0 -5 8 -4 18 1 11 6 24 6 36 -1 14 -8 17 -8 11 2
-6 9 -3 9 14 1 11 -7 21 -8 21 -3 0 12 43 10 52 -3 5 -6 8 -6 8 1 0 12 38 13
56 1 6 -3 14 -3 18 0 12 12 56 11 56 -1 0 -7 3 -8 8 -1 4 6 16 11 27 11 11 0
23 -5 27 -11 5 -7 8 -7 8 0 0 6 18 11 40 11 22 0 40 -4 40 -9 0 -5 6 -5 13 1
10 9 13 165 12 769 l0 758 -757 1 c-584 1 -760 -1 -768 -11z"/>
<path d="M10039 13176 c-1 0 -3 -341 -4 -756 -1 -574 2 -758 11 -767 6 -7 15
-9 18 -5 12 11 56 10 56 -2 0 -7 3 -8 8 -1 4 6 16 11 27 11 11 0 23 -5 27 -11
5 -7 8 -7 8 0 0 6 20 11 45 11 25 -1 45 -4 45 -9 0 -4 6 -5 12 0 18 11 52 10
60 -2 5 -7 8 -6 8 1 0 10 70 11 87 1 5 -3 15 -2 23 3 8 5 21 5 30 0 9 -5 22
-5 30 0 8 5 22 4 32 -1 10 -5 18 -6 18 -1 0 4 14 8 30 7 17 0 30 -4 30 -8 0
-5 6 -5 12 -1 19 12 48 12 48 1 0 -6 5 -6 13 -1 15 11 38 11 55 1 6 -5 12 -4
12 1 0 10 30 9 48 -2 6 -4 12 -3 12 3 0 7 8 7 25 1 14 -5 25 -6 25 -1 0 12 43
8 52 -4 5 -6 8 -6 8 1 0 12 38 13 56 1 6 -3 14 -3 18 0 12 12 56 11 56 -1 0
-7 3 -8 8 -1 4 6 16 11 27 11 11 0 23 -5 27 -11 5 -7 8 -7 8 0 0 6 20 11 45
11 25 -1 45 -4 45 -9 0 -4 6 -5 12 0 18 11 52 10 60 -2 5 -6 8 -6 8 1 0 7 12
10 28 7 15 -2 32 -4 37 -4 6 0 22 2 38 4 15 2 27 0 27 -5 0 -5 6 -6 12 -2 19
12 48 12 48 0 0 -6 4 -6 11 1 6 6 18 9 25 6 11 -4 13 4 11 36 -2 23 0 44 5 47
5 3 5 10 2 16 -6 10 -10 310 -4 333 1 6 1 12 0 15 -6 16 -4 210 3 210 5 0 5 5
1 11 -9 15 -11 228 -2 242 4 6 4 15 1 21 -9 14 -9 206 -1 206 4 0 5 7 1 16 -9
24 -10 216 -1 236 5 9 5 19 0 22 -4 2 -7 29 -6 59 l3 55 -760 0 c-417 0 -760
-1 -760 -2z"/>
<path d="M13219 13156 c-1 -11 -1 -25 0 -30 7 -32 5 -176 -2 -176 -4 0 -3 -9
3 -20 6 -11 7 -20 3 -20 -4 0 -6 -36 -3 -80 3 -44 1 -80 -3 -80 -4 0 -3 -9 3
-20 8 -15 8 -20 -1 -20 -9 0 -9 -3 0 -14 8 -10 9 -16 1 -21 -7 -4 -7 -12 0
-26 8 -13 7 -19 0 -19 -8 0 -8 -6 0 -20 8 -14 8 -20 0 -20 -8 0 -8 -6 0 -20 8
-15 8 -20 -1 -20 -9 0 -9 -3 0 -14 8 -10 9 -16 1 -21 -7 -4 -7 -12 0 -26 6
-10 7 -19 3 -19 -4 0 -6 -36 -3 -80 3 -44 1 -80 -3 -80 -4 0 -3 -9 3 -20 6
-11 7 -20 3 -20 -4 0 -6 -36 -3 -80 3 -44 1 -80 -3 -80 -4 0 -3 -9 3 -20 8
-15 8 -20 -1 -20 -9 0 -9 -3 0 -14 8 -10 9 -16 1 -21 -7 -4 -7 -12 0 -26 6
-10 7 -19 2 -19 -5 0 -6 -18 -2 -40 4 -22 3 -40 -2 -40 -5 0 -4 -9 2 -20 6
-11 7 -20 2 -20 -4 0 -5 -27 -2 -60 3 -34 2 -60 -3 -60 -5 0 -5 -6 1 -13 6 -7
7 -18 3 -25 -13 -22 -1 -60 17 -57 10 1 23 -2 30 -8 7 -6 12 -6 12 0 0 11 29
11 48 -1 6 -4 12 -3 12 2 0 10 30 9 48 -2 6 -4 12 -3 12 3 0 7 8 7 25 1 14 -5
25 -6 25 -1 0 12 43 8 52 -4 5 -6 8 -6 8 1 0 12 38 13 56 1 6 -3 14 -3 18 0
12 12 56 11 56 -1 0 -7 3 -8 8 -1 4 6 16 11 27 11 11 0 23 -5 27 -11 5 -7 8
-7 8 0 0 6 20 11 45 11 25 -1 45 -4 45 -9 0 -4 6 -5 12 0 18 11 52 10 60 -2 5
-6 8 -6 8 1 0 7 12 10 28 7 15 -2 32 -4 37 -4 6 0 22 2 38 4 15 2 27 0 27 -5
0 -5 6 -6 12 -2 18 11 48 12 48 2 0 -5 4 -6 10 -3 19 11 50 14 50 4 0 -6 6 -7
12 -3 18 11 48 12 48 2 0 -5 6 -6 12 -2 18 11 48 12 48 2 0 -5 6 -6 12 -2 18
11 48 12 48 2 0 -5 8 -5 17 1 11 6 24 6 36 -1 15 -7 18 -7 12 2 -6 9 -2 9 14
1 11 -7 21 -8 21 -3 0 12 43 10 52 -3 5 -6 8 -6 8 1 0 12 38 13 56 1 6 -3 14
-3 18 0 12 12 56 11 56 -1 0 -7 3 -8 8 -1 4 6 16 11 27 11 11 0 23 -5 27 -11
5 -7 8 -7 8 1 0 6 17 10 38 10 l37 -1 1 750 c0 413 -2 755 -4 762 -2 8 -197
11 -763 11 l-759 -1 -1 -21z"/>
<path d="M16407 13171 c-3 -6 -1 -1495 2 -1515 0 -4 10 -6 21 -3 11 3 20 0 20
-6 0 -8 3 -8 8 -2 4 6 18 9 32 8 35 -5 42 -5 73 0 15 2 27 0 27 -5 0 -5 5 -6
12 -2 17 11 91 11 106 0 7 -5 12 -5 12 1 0 11 29 11 48 -1 6 -4 12 -3 12 2 0
10 30 9 48 -2 6 -4 12 -3 12 2 0 10 30 9 48 -2 6 -4 12 -3 12 2 0 10 36 9 46
-1 4 -3 14 -2 23 3 10 5 23 5 31 0 8 -5 21 -5 30 0 9 5 22 5 30 0 8 -5 21 -5
30 0 9 5 22 5 30 0 8 -5 21 -5 30 0 9 5 22 5 30 0 8 -5 21 -5 30 0 9 5 22 5
29 0 8 -4 25 -5 40 -1 33 8 53 7 69 -2 6 -5 12 -4 12 1 0 10 30 9 48 -2 6 -4
12 -3 12 2 0 10 30 9 48 -2 6 -4 12 -3 12 2 0 10 30 9 48 -2 6 -4 12 -3 12 2
0 10 36 9 46 -1 4 -3 14 -2 23 3 10 5 23 5 31 0 8 -5 21 -5 30 0 9 5 22 5 30
0 8 -5 21 -5 30 0 9 5 22 5 30 0 8 -5 21 -5 30 0 9 5 22 5 30 0 8 -5 21 -5 30
0 9 5 22 5 30 0 8 -5 22 -5 32 1 17 9 18 50 18 768 l0 759 -760 0 c-418 -1
-762 -3 -763 -7z"/>
<path d="M6850 9383 l0 -762 200 -3 c126 -2 202 1 205 7 3 6 7 5 11 -3 3 -6
10 -10 15 -6 8 5 520 8 545 3 5 -1 11 -1 14 0 15 5 301 2 309 -3 5 -4 12 -3
14 1 3 5 50 6 106 3 63 -3 103 -1 106 5 3 6 7 5 11 -3 3 -6 10 -9 16 -6 11 7
427 6 439 -1 4 -3 10 1 13 7 5 11 7 11 12 0 3 -6 10 -9 16 -6 11 7 427 6 439
-1 4 -3 10 1 13 7 5 11 7 11 12 0 3 -6 10 -9 15 -6 9 5 359 9 384 4 6 -1 12
-2 15 -1 15 5 301 2 309 -3 5 -4 12 -3 14 1 3 5 50 6 106 3 63 -3 103 -1 106
5 3 6 7 5 11 -3 3 -6 10 -9 16 -6 11 7 427 6 439 -1 4 -3 10 1 13 7 5 11 7 11
12 0 3 -6 10 -9 16 -6 11 7 427 6 439 -1 4 -3 10 1 13 7 5 11 7 11 12 0 3 -6
10 -9 16 -6 12 8 266 6 278 -1 5 -3 11 1 14 7 5 11 7 11 12 0 3 -6 10 -9 16
-6 11 7 427 6 439 -1 4 -3 10 1 13 7 5 11 7 11 12 0 3 -6 10 -9 16 -6 11 7
427 6 439 -1 4 -3 10 1 13 7 5 11 7 11 12 0 3 -6 10 -9 16 -6 12 8 266 6 278
-1 5 -3 11 1 14 7 5 11 7 11 12 0 3 -6 10 -9 16 -6 11 7 427 6 439 -1 4 -3 10
1 13 7 5 11 7 11 12 0 3 -6 10 -9 16 -6 11 7 427 6 439 -1 4 -3 10 1 13 7 5
11 7 11 12 0 3 -6 10 -9 16 -6 12 8 266 6 278 -1 5 -3 11 1 14 7 5 11 7 11 12
0 3 -6 10 -9 16 -6 11 7 427 6 439 -1 4 -3 10 1 13 7 5 11 7 11 12 0 3 -6 10
-9 16 -6 11 7 427 6 439 -1 4 -3 10 1 13 7 5 11 7 11 12 0 3 -6 10 -9 15 -6 9
5 359 9 384 4 6 -1 12 -2 15 -1 15 5 301 2 309 -3 5 -4 12 -3 14 1 3 5 50 6
106 3 63 -3 103 -1 106 5 3 6 7 5 11 -3 3 -6 10 -9 16 -6 11 7 427 6 439 -1 4
-3 10 1 13 7 5 11 7 11 12 0 3 -6 10 -9 16 -6 11 7 427 6 439 -1 4 -3 10 1 13
7 5 11 7 11 12 0 3 -6 10 -9 15 -6 9 5 359 9 384 4 6 -1 12 -2 15 -1 8 3 293
3 305 1 6 -1 15 -2 20 0 6 1 45 1 88 0 l77 -1 0 763 0 764 -5540 0 -5540 0 0
-763z"/>
<path d="M6854 7081 c-2 -2 -4 -346 -4 -763 l0 -758 33 -1 c17 0 2509 0 5537
-1 l5505 0 3 761 c1 419 -1 761 -5 762 -25 3 -11065 3 -11069 0z"/>
<path d="M16680 4175 c0 -6 -33 -11 -73 -11 -76 -1 -191 -9 -267 -19 -25 -3
-63 -7 -85 -9 -22 -3 -40 -5 -40 -7 0 -1 -17 -3 -37 -4 -21 -1 -41 -4 -44 -8
-3 -3 -12 -3 -20 0 -8 3 -14 1 -14 -3 0 -5 -15 -10 -32 -11 -59 -3 -113 -11
-131 -18 -10 -4 -28 -9 -40 -10 -12 -1 -22 -3 -22 -4 0 -2 -37 -8 -90 -15 -12
-1 -26 -6 -33 -10 -7 -4 -16 -5 -21 -1 -5 3 -12 1 -15 -4 -4 -5 -14 -8 -24 -6
-9 1 -22 -2 -28 -7 -7 -5 -16 -8 -20 -7 -5 1 -11 0 -14 -1 -11 -4 -47 -10 -72
-13 -16 -1 -28 -5 -28 -8 0 -12 -39 -17 -44 -5 -3 7 -5 7 -5 -1 -1 -7 -14 -13
-29 -13 -15 0 -33 -5 -40 -12 -7 -7 -12 -9 -12 -6 0 4 -15 2 -32 -3 -18 -5
-48 -12 -67 -15 -19 -3 -44 -10 -57 -14 -12 -5 -25 -6 -28 -3 -3 4 -6 1 -6 -4
0 -6 -8 -10 -17 -8 -10 1 -25 -1 -34 -6 -8 -4 -29 -10 -45 -13 -16 -2 -29 -5
-29 -6 0 -1 -7 -3 -15 -5 -28 -6 -75 -16 -87 -19 -7 -1 -15 -5 -19 -8 -3 -4
-12 -4 -20 -1 -8 3 -14 1 -14 -4 0 -5 -8 -9 -17 -9 -10 -1 -31 -4 -48 -8 -29
-7 -65 -15 -95 -20 -8 -1 -24 -5 -35 -9 -11 -3 -31 -9 -45 -11 -14 -3 -43 -10
-65 -15 -22 -6 -53 -12 -70 -15 -43 -8 -76 -15 -105 -22 -14 -3 -29 -6 -35 -7
-5 -2 -16 -7 -24 -11 -10 -7 -12 -6 -6 4 5 9 4 11 -4 6 -14 -9 -60 -19 -83
-18 -10 0 -18 -2 -18 -6 0 -6 -31 -10 -117 -15 -18 -1 -33 -5 -33 -9 0 -4 -13
-6 -30 -4 -16 2 -32 1 -35 -3 -7 -6 -66 -13 -132 -15 -24 0 -43 -4 -43 -7 0
-3 -16 -5 -35 -4 -19 1 -35 -2 -35 -7 0 -5 -9 -4 -19 2 -14 7 -22 7 -26 0 -5
-8 -11 -8 -19 -1 -7 6 -16 7 -20 3 -12 -12 -326 -12 -326 0 0 7 -4 7 -12 1 -7
-6 -22 -9 -33 -7 -11 3 -49 6 -85 9 -69 5 -124 11 -180 20 -19 4 -44 7 -55 8
-11 2 -24 5 -30 9 -5 3 -22 6 -37 6 -15 0 -40 4 -55 10 -16 7 -39 13 -53 15
-14 2 -32 6 -40 9 -45 15 -128 39 -149 43 -14 3 -28 10 -31 16 -4 6 -11 10
-16 9 -8 -1 -27 4 -54 14 -3 1 -15 5 -27 10 -13 4 -23 12 -23 17 0 6 -4 7 -10
4 -5 -3 -56 16 -112 43 -57 26 -119 54 -138 62 -19 7 -40 17 -47 23 -7 5 -17
6 -23 2 -5 -3 -10 -1 -10 5 0 6 -4 8 -10 5 -5 -3 -10 -2 -10 3 0 4 -24 14 -52
21 -29 8 -57 16 -63 20 -5 3 -21 7 -35 9 -13 2 -27 6 -30 10 -3 4 -10 8 -17 9
-6 1 -26 5 -44 8 -18 3 -38 9 -44 13 -5 4 -23 7 -40 7 -16 0 -32 3 -35 7 -3 3
-25 9 -50 12 -41 5 -73 10 -139 21 -13 2 -26 7 -29 9 -3 3 -11 1 -19 -5 -7 -6
-13 -7 -13 -2 0 9 -30 13 -135 17 -28 1 -55 5 -62 9 -6 4 -13 2 -15 -4 -3 -9
-9 -9 -25 0 -13 6 -24 7 -27 2 -3 -5 -21 -5 -41 -1 -22 5 -35 4 -35 -2 0 -7
-5 -6 -13 1 -8 6 -17 8 -20 5 -11 -11 -101 -10 -116 1 -10 7 -13 7 -9 0 4 -7
-14 -12 -50 -13 -94 -5 -128 -8 -140 -16 -6 -3 -14 -2 -17 4 -4 7 -11 7 -18 2
-7 -5 -27 -9 -44 -10 -18 0 -34 -1 -35 -2 -5 -3 -43 -9 -98 -15 -73 -8 -83
-10 -95 -15 -5 -3 -21 -5 -35 -5 -14 0 -28 -4 -32 -10 -5 -6 -8 -5 -8 4 0 9
-4 10 -12 3 -14 -11 -89 -26 -125 -25 -13 0 -23 -4 -23 -10 0 -5 -11 -7 -25
-5 -14 3 -25 2 -25 -2 0 -4 -6 -7 -12 -7 -7 0 -60 -10 -118 -23 -58 -13 -111
-23 -117 -23 -7 0 -13 -3 -13 -7 0 -3 -8 -7 -17 -8 -10 -1 -32 -3 -48 -5 -17
-2 -36 -7 -43 -11 -7 -4 -16 -4 -22 -1 -5 3 -10 1 -10 -6 0 -6 -8 -9 -20 -6
-11 3 -20 1 -20 -3 0 -5 -8 -9 -17 -9 -47 -2 -63 -6 -63 -15 0 -5 -3 -7 -6 -4
-3 3 -29 0 -57 -8 -29 -8 -65 -16 -81 -19 -16 -3 -32 -8 -36 -10 -4 -2 -21 -7
-39 -10 -17 -3 -57 -12 -89 -21 -71 -19 -91 -24 -122 -29 -14 -2 -49 -11 -77
-19 -29 -8 -53 -12 -53 -9 0 3 -6 1 -12 -4 -7 -6 -21 -9 -30 -8 -10 2 -18 -2
-18 -8 0 -5 -2 -8 -5 -5 -3 3 -34 -1 -68 -9 -34 -8 -75 -15 -92 -17 -16 -2
-30 -5 -30 -6 0 -2 -31 -9 -70 -14 -16 -3 -30 -5 -30 -6 0 -4 -96 -20 -145
-25 -19 -2 -35 -4 -35 -5 0 -3 -38 -9 -162 -24 -18 -3 -37 -7 -43 -11 -5 -3
-10 -1 -10 5 0 6 -5 8 -12 3 -15 -8 -52 -13 -125 -16 -29 -1 -53 -5 -53 -10 0
-4 -9 -3 -20 3 -11 6 -20 7 -20 3 0 -10 -353 -9 -460 1 -86 8 -130 15 -142 22
-4 3 -8 0 -8 -7 0 -8 -4 -8 -13 -1 -7 6 -32 13 -57 16 -25 2 -45 5 -45 6 0 2
-38 11 -65 15 -14 2 -40 8 -58 13 -18 6 -35 11 -37 11 -3 1 -6 1 -7 2 -2 0
-16 3 -33 5 -16 3 -33 11 -37 17 -4 7 -8 9 -8 5 0 -4 -26 2 -57 13 -32 11 -60
20 -63 21 -3 0 -15 4 -28 9 -13 5 -26 9 -29 9 -5 0 -26 9 -118 50 -82 37 -98
42 -104 31 -3 -5 -4 -347 -1 -760 l5 -751 60 -28 c33 -16 83 -37 110 -47 28
-10 55 -22 61 -27 6 -4 14 -5 17 -1 4 3 7 1 7 -6 0 -7 4 -10 9 -6 5 3 12 1 15
-4 4 -5 14 -8 24 -7 9 2 19 -1 22 -5 3 -5 15 -10 25 -12 11 -1 26 -6 33 -10 6
-5 12 -6 12 -3 0 3 18 -1 40 -10 22 -9 46 -14 54 -11 7 3 18 1 24 -5 6 -6 28
-13 49 -15 21 -2 40 -7 43 -11 3 -4 20 -7 38 -7 17 1 32 -2 32 -5 0 -4 10 -6
23 -5 12 1 28 -3 36 -9 12 -9 13 -8 6 4 -7 12 -6 13 6 4 8 -6 24 -10 37 -9 13
1 25 -2 27 -6 3 -4 19 -5 35 -3 18 3 30 1 30 -6 0 -7 6 -8 17 -2 9 5 29 6 44
2 23 -7 514 -7 514 -1 0 2 28 4 62 6 69 5 113 12 121 19 3 3 11 1 19 -5 7 -6
13 -7 13 -2 0 5 10 10 23 10 22 1 55 6 137 19 25 4 54 8 65 9 11 1 27 4 35 7
18 7 174 37 215 42 17 2 30 5 30 6 0 1 11 3 25 6 14 2 36 7 50 10 14 4 32 8
40 9 8 1 35 8 60 14 51 13 96 22 125 25 11 1 29 7 40 13 11 6 28 9 38 8 9 -2
17 0 17 4 0 4 6 8 13 9 32 2 75 12 100 21 16 6 33 9 38 5 5 -3 9 -1 9 4 0 5 6
9 13 9 18 1 67 11 105 22 17 5 32 7 32 4 0 -3 6 -1 13 4 6 6 19 11 27 11 23 1
44 7 58 15 6 5 12 5 12 0 0 -4 5 -1 10 7 8 12 10 12 10 1 0 -9 4 -10 13 -3 12
10 91 27 115 25 6 0 12 2 12 6 0 4 8 8 18 9 20 2 56 10 60 12 1 2 11 4 22 5
11 1 22 4 25 5 3 1 13 3 23 5 9 1 24 5 32 8 8 3 29 8 45 11 17 3 40 7 51 10
12 2 37 7 55 10 19 3 45 8 59 11 14 3 41 8 60 11 19 4 44 9 55 11 24 5 67 11
115 17 19 2 35 5 35 6 0 1 14 4 30 5 17 2 53 7 80 10 28 4 70 8 95 10 25 2 45
4 45 5 0 5 123 10 298 13 123 2 187 0 187 -7 0 -6 4 -6 11 1 6 6 24 8 42 4 18
-4 43 -6 57 -5 14 1 29 -1 35 -4 5 -3 32 -8 60 -10 59 -3 110 -9 110 -12 0 -2
19 -6 66 -14 20 -3 48 -10 62 -15 14 -5 27 -7 31 -4 3 3 23 -2 44 -10 22 -9
42 -13 46 -10 3 3 11 1 18 -4 7 -6 38 -16 68 -24 30 -7 57 -17 60 -21 3 -4 15
-9 25 -11 62 -13 85 -20 85 -27 0 -8 58 -26 73 -22 4 1 7 -2 7 -7 0 -4 21 -16
48 -26 26 -10 53 -23 61 -28 7 -6 18 -12 25 -13 6 -1 31 -11 56 -22 82 -38
173 -72 192 -72 10 0 18 -4 18 -8 0 -5 6 -9 13 -10 22 -2 42 -7 55 -15 6 -5
12 -6 12 -3 0 3 12 1 28 -5 15 -6 35 -13 45 -15 9 -2 27 -7 40 -10 12 -3 38
-8 57 -11 19 -3 41 -10 48 -15 8 -7 12 -6 12 3 0 10 3 11 8 3 6 -11 66 -22
143 -29 14 -1 30 -4 35 -6 5 -3 33 -5 61 -4 29 0 53 -2 53 -5 0 -3 26 -6 58
-5 31 0 61 -2 67 -4 11 -6 202 -3 325 5 47 2 109 6 137 8 29 1 56 5 59 9 3 3
12 3 19 1 7 -3 16 0 20 6 5 8 11 8 21 -1 11 -9 14 -9 14 0 0 7 4 10 8 7 8 -4
46 0 177 19 22 3 47 8 55 10 8 2 33 7 55 10 23 3 52 8 65 11 14 3 35 7 48 10
12 2 32 6 45 8 12 3 33 8 47 11 14 3 39 8 55 10 17 3 53 11 82 19 28 8 54 11
57 8 3 -3 6 -1 6 4 0 6 12 9 28 9 15 -1 32 1 37 4 6 3 19 7 30 8 11 2 21 7 23
12 1 4 14 6 27 3 15 -2 25 0 25 7 0 7 3 10 8 7 6 -4 70 9 142 29 8 2 42 10 75
17 33 7 62 15 65 18 3 3 14 6 25 7 21 2 60 10 60 13 0 2 17 6 60 14 17 3 45
10 63 15 18 5 35 10 37 10 3 1 6 1 8 2 1 0 13 3 27 6 39 7 55 11 55 13 0 1 9
3 20 5 11 2 31 6 45 10 54 14 76 18 98 18 12 1 22 4 22 9 0 4 7 5 15 2 8 -4
15 -2 15 3 0 5 12 8 28 8 15 -1 32 1 37 4 12 7 27 9 88 18 26 3 47 9 47 12 0
3 12 7 28 8 44 2 126 14 142 20 18 7 32 9 85 13 22 2 45 8 52 12 6 5 14 5 18
-2 3 -6 12 -7 18 -3 15 9 26 11 117 18 41 3 91 8 110 10 19 2 76 5 125 6 50 1
96 7 104 13 10 7 13 7 8 0 -4 -7 21 -11 76 -12 114 -1 288 -14 307 -22 3 -1
20 -2 38 -2 17 0 32 -4 32 -10 0 -7 4 -7 13 1 8 6 17 7 23 2 5 -5 27 -12 49
-15 47 -7 72 -12 103 -20 12 -3 31 -8 43 -11 11 -2 29 -7 39 -10 10 -3 28 -8
40 -10 29 -6 92 -26 112 -36 10 -5 22 -9 27 -9 5 0 22 -5 38 -12 15 -6 30 -12
33 -13 3 -1 16 -6 30 -12 14 -6 45 -19 70 -29 25 -10 61 -26 80 -35 l35 -17 3
751 c1 414 0 757 -2 764 -5 12 -106 68 -106 59 0 -3 -22 6 -49 19 -27 14 -55
25 -63 25 -8 0 -18 3 -21 7 -10 10 -139 52 -159 53 -10 0 -18 4 -18 10 0 5 -3
9 -7 8 -10 -2 -109 16 -115 22 -6 4 -104 22 -125 23 -7 0 -13 3 -13 6 0 6 -44
10 -97 11 -12 0 -25 5 -28 10 -4 7 -13 7 -24 0 -10 -5 -21 -6 -25 -3 -8 8 -43
12 -148 16 -43 2 -80 6 -84 9 -3 4 -16 3 -29 -2 -14 -5 -26 -5 -34 3 -6 6 -11
7 -11 1 0 -5 -9 -10 -20 -10 -11 0 -20 4 -20 9 0 5 -6 5 -13 -2 -10 -8 -17 -7
-25 1 -7 7 -12 8 -12 3z"/>
</g>
</svg>
